<?xml version="1.0" encoding="UTF-8"?>
<svg xmlns="http://www.w3.org/2000/svg" xmlns:xlink="http://www.w3.org/1999/xlink" width="412.5pt" height="277.499997pt" viewBox="0 0 412.5 277.499997" version="1.2">
<defs>
<clipPath id="clip1">
  <path d="M 0.121094 0 L 411.878906 0 L 411.878906 277 L 0.121094 277 Z M 0.121094 0 "/>
</clipPath>
<clipPath id="clip2">
  <path d="M 95.316406 69 L 317.183594 69 L 317.183594 249.601562 L 95.316406 249.601562 Z M 95.316406 69 "/>
</clipPath>
<clipPath id="clip3">
  <path d="M 95.316406 27.734375 L 317.183594 27.734375 L 317.183594 74 L 95.316406 74 Z M 95.316406 27.734375 "/>
</clipPath>
</defs>
<g id="surface1">
<g clip-path="url(#clip1)" clip-rule="nonzero">
<path style=" stroke:none;fill-rule:nonzero;fill:rgb(100%,100%,100%);fill-opacity:1;" d="M 0.121094 0 L 412.378906 0 L 412.378906 284.082031 L 0.121094 284.082031 Z M 0.121094 0 "/>
<path style=" stroke:none;fill-rule:nonzero;fill:rgb(100%,100%,100%);fill-opacity:1;" d="M 0.121094 0 L 412.378906 0 L 412.378906 277.335938 L 0.121094 277.335938 Z M 0.121094 0 "/>
<path style=" stroke:none;fill-rule:nonzero;fill:rgb(100%,100%,100%);fill-opacity:1;" d="M 0.121094 0 L 412.378906 0 L 412.378906 277.335938 L 0.121094 277.335938 Z M 0.121094 0 "/>
</g>
<g clip-path="url(#clip2)" clip-rule="nonzero">
<path style=" stroke:none;fill-rule:nonzero;fill:rgb(90.589905%,92.549133%,92.939758%);fill-opacity:1;" d="M 304.753906 249.601562 L 107.746094 249.601562 C 100.882812 249.601562 95.316406 244.035156 95.316406 237.171875 L 95.316406 69.8125 L 317.183594 69.8125 L 317.183594 237.171875 C 317.183594 244.035156 311.617188 249.601562 304.753906 249.601562 Z M 304.753906 249.601562 "/>
</g>
<g clip-path="url(#clip3)" clip-rule="nonzero">
<path style=" stroke:none;fill-rule:nonzero;fill:rgb(33.329773%,37.649536%,50.19989%);fill-opacity:1;" d="M 317.183594 73.636719 L 95.316406 73.636719 L 95.316406 40.164062 C 95.316406 33.300781 100.882812 27.734375 107.746094 27.734375 L 304.753906 27.734375 C 311.617188 27.734375 317.183594 33.300781 317.183594 40.164062 Z M 317.183594 73.636719 "/>
</g>
<path style=" stroke:none;fill-rule:nonzero;fill:rgb(86.669922%,20.779419%,18.03894%);fill-opacity:1;" d="M 110.617188 43.035156 L 125.917969 43.035156 L 125.917969 58.335938 L 110.617188 58.335938 Z M 110.617188 43.035156 "/>
<path style=" stroke:none;fill-rule:nonzero;fill:rgb(92.158508%,72.938538%,8.628845%);fill-opacity:1;" d="M 141.21875 43.035156 L 156.519531 43.035156 L 156.519531 58.335938 L 141.21875 58.335938 Z M 141.21875 43.035156 "/>
<path style=" stroke:none;fill-rule:nonzero;fill:rgb(13.729858%,63.529968%,30.198669%);fill-opacity:1;" d="M 171.820312 43.035156 L 187.125 43.035156 L 187.125 58.335938 L 171.820312 58.335938 Z M 171.820312 43.035156 "/>
<path style=" stroke:none;fill-rule:nonzero;fill:rgb(68.629456%,71.369934%,73.329163%);fill-opacity:1;" d="M 252.152344 146.320312 L 221.550781 176.921875 L 160.347656 207.523438 L 160.347656 230.476562 L 298.058594 230.476562 L 298.058594 146.320312 Z M 252.152344 146.320312 "/>
<path style=" stroke:none;fill-rule:nonzero;fill:rgb(10.978699%,14.898682%,23.919678%);fill-opacity:1;" d="M 252.152344 138.667969 L 298.058594 138.667969 L 298.058594 169.269531 L 252.152344 169.269531 Z M 252.152344 138.667969 "/>
<path style=" stroke:none;fill-rule:nonzero;fill:rgb(86.669922%,20.779419%,18.03894%);fill-opacity:1;" d="M 278.929688 157.796875 L 271.28125 157.796875 C 269.167969 157.796875 267.457031 156.085938 267.457031 153.96875 C 267.457031 151.855469 269.167969 150.144531 271.28125 150.144531 L 278.929688 150.144531 C 281.042969 150.144531 282.757812 151.855469 282.757812 153.96875 C 282.757812 156.085938 281.042969 157.796875 278.929688 157.796875 Z M 278.929688 157.796875 "/>
<path style=" stroke:none;fill-rule:nonzero;fill:rgb(100%,100%,100%);fill-opacity:1;" d="M 114.441406 108.066406 L 252.152344 108.066406 L 252.152344 207.523438 L 114.441406 207.523438 Z M 114.441406 108.066406 "/>
<path style=" stroke:none;fill-rule:nonzero;fill:rgb(96.859741%,38.819885%,38.819885%);fill-opacity:1;" d="M 171.820312 153.96875 L 133.570312 153.96875 C 131.457031 153.96875 129.742188 152.257812 129.742188 150.144531 C 129.742188 148.027344 131.457031 146.320312 133.570312 146.320312 L 171.820312 146.320312 C 173.933594 146.320312 175.648438 148.027344 175.648438 150.144531 C 175.648438 152.257812 173.933594 153.96875 171.820312 153.96875 Z M 171.820312 153.96875 "/>
<path style=" stroke:none;fill-rule:nonzero;fill:rgb(45.878601%,20.388794%,54.508972%);fill-opacity:1;" d="M 233.027344 153.96875 L 190.949219 153.96875 C 188.835938 153.96875 187.125 152.257812 187.125 150.144531 C 187.125 148.027344 188.835938 146.320312 190.949219 146.320312 L 233.027344 146.320312 C 235.140625 146.320312 236.851562 148.027344 236.851562 150.144531 C 236.851562 152.257812 235.140625 153.96875 233.027344 153.96875 Z M 233.027344 153.96875 "/>
<path style=" stroke:none;fill-rule:nonzero;fill:rgb(21.179199%,42.749023%,71.369934%);fill-opacity:1;" d="M 190.949219 184.574219 L 133.570312 184.574219 C 131.457031 184.574219 129.742188 182.863281 129.742188 180.746094 C 129.742188 178.632812 131.457031 176.921875 133.570312 176.921875 L 190.949219 176.921875 C 193.058594 176.921875 194.773438 178.632812 194.773438 180.746094 C 194.773438 182.863281 193.058594 184.574219 190.949219 184.574219 Z M 190.949219 184.574219 "/>
<path style=" stroke:none;fill-rule:nonzero;fill:rgb(86.669922%,20.779419%,18.03894%);fill-opacity:1;" d="M 233.027344 184.574219 L 206.25 184.574219 C 204.136719 184.574219 202.425781 182.863281 202.425781 180.746094 C 202.425781 178.632812 204.136719 176.921875 206.25 176.921875 L 233.027344 176.921875 C 235.140625 176.921875 236.851562 178.632812 236.851562 180.746094 C 236.851562 182.863281 235.140625 184.574219 233.027344 184.574219 Z M 233.027344 184.574219 "/>
<path style=" stroke:none;fill-rule:nonzero;fill:rgb(10.978699%,14.898682%,23.919678%);fill-opacity:1;" d="M 114.441406 92.765625 L 252.152344 92.765625 L 252.152344 123.367188 L 114.441406 123.367188 Z M 114.441406 92.765625 "/>
<path style=" stroke:none;fill-rule:nonzero;fill:rgb(86.669922%,20.779419%,18.03894%);fill-opacity:1;" d="M 233.027344 111.890625 L 229.203125 111.890625 C 227.089844 111.890625 225.375 110.179688 225.375 108.066406 C 225.375 105.949219 227.089844 104.242188 229.203125 104.242188 L 233.027344 104.242188 C 235.140625 104.242188 236.851562 105.949219 236.851562 108.066406 C 236.851562 110.179688 235.140625 111.890625 233.027344 111.890625 Z M 233.027344 111.890625 "/>
<path style=" stroke:none;fill-rule:nonzero;fill:rgb(92.158508%,72.938538%,8.628845%);fill-opacity:1;" d="M 213.902344 111.890625 L 210.074219 111.890625 C 207.964844 111.890625 206.25 110.179688 206.25 108.066406 C 206.25 105.949219 207.964844 104.242188 210.074219 104.242188 L 213.902344 104.242188 C 216.011719 104.242188 217.726562 105.949219 217.726562 108.066406 C 217.726562 110.179688 216.011719 111.890625 213.902344 111.890625 Z M 213.902344 111.890625 "/>
<path style=" stroke:none;fill-rule:nonzero;fill:rgb(13.729858%,63.529968%,30.198669%);fill-opacity:1;" d="M 194.773438 111.890625 L 190.949219 111.890625 C 188.835938 111.890625 187.125 110.179688 187.125 108.066406 C 187.125 105.949219 188.835938 104.242188 190.949219 104.242188 L 194.773438 104.242188 C 196.886719 104.242188 198.597656 105.949219 198.597656 108.066406 C 198.597656 110.179688 196.886719 111.890625 194.773438 111.890625 Z M 194.773438 111.890625 "/>
<path style=" stroke:none;fill-rule:nonzero;fill:rgb(92.158508%,72.938538%,8.628845%);fill-opacity:1;" d="M 233.027344 169.269531 L 167.996094 169.269531 C 165.886719 169.269531 164.171875 167.5625 164.171875 165.445312 C 164.171875 163.332031 165.886719 161.621094 167.996094 161.621094 L 233.027344 161.621094 C 235.140625 161.621094 236.851562 163.332031 236.851562 165.445312 C 236.851562 167.5625 235.140625 169.269531 233.027344 169.269531 Z M 233.027344 169.269531 "/>
<path style=" stroke:none;fill-rule:nonzero;fill:rgb(14.509583%,68.238831%,53.329468%);fill-opacity:1;" d="M 148.871094 169.269531 L 133.570312 169.269531 C 131.457031 169.269531 129.742188 167.5625 129.742188 165.445312 C 129.742188 163.332031 131.457031 161.621094 133.570312 161.621094 L 148.871094 161.621094 C 150.980469 161.621094 152.695312 163.332031 152.695312 165.445312 C 152.695312 167.5625 150.980469 169.269531 148.871094 169.269531 Z M 148.871094 169.269531 "/>
</g>
</svg>
